HIERARCHY
ROOT Hips
{
	OFFSET 0.000000 0.000000 0.000000
	CHANNELS 6 Xposition Yposition Zposition Xrotation Yrotation Zrotation
	JOINT LeftUpLeg_virtual
	{
		OFFSET 0.000000 0.000000 0.000000
		CHANNELS 3 Xrotation Yrotation Zrotation
		JOINT LeftUpLeg
		{
			OFFSET 10.205400 -3.823500 0.155100
			CHANNELS 3 Xrotation Yrotation Zrotation
			JOINT LeftLeg
			{
				OFFSET 0.708757 -12.982077 0.567790
				CHANNELS 3 Xrotation Yrotation Zrotation
				JOINT LeftFoot
				{
					OFFSET -0.708756 -10.717838 -2.184338
					CHANNELS 3 Xrotation Yrotation Zrotation
					JOINT LeftToeBase
					{
						OFFSET 0.108149 -7.191104 7.560241
						CHANNELS 3 Xrotation Yrotation Zrotation
						JOINT LeftToe_End
						{
							OFFSET 0.070230 0.081724 4.490308
							CHANNELS 3 Xrotation Yrotation Zrotation
							End Site
							{
								OFFSET 0 0 0
							}
						}
					}
				}
			}
		}
	}
	JOINT RightUpLeg_virtual
	{
		OFFSET 0.000000 0.000000 0.000000
		CHANNELS 3 Xrotation Yrotation Zrotation
		JOINT RightUpLeg
		{
			OFFSET -10.205400 -3.823500 0.005500
			CHANNELS 3 Xrotation Yrotation Zrotation
			JOINT RightLeg
			{
				OFFSET -0.708756 -12.982134 0.610632
				CHANNELS 3 Xrotation Yrotation Zrotation
				JOINT RightFoot
				{
					OFFSET 0.708754 -10.717769 -1.945823
					CHANNELS 3 Xrotation Yrotation Zrotation
					JOINT RightToeBase
					{
						OFFSET -0.108140 -7.191069 7.372968
						CHANNELS 3 Xrotation Yrotation Zrotation
						JOINT RightToe_End
						{
							OFFSET -0.070227 0.081735 4.479403
							CHANNELS 3 Xrotation Yrotation Zrotation
							End Site
							{
								OFFSET 0 0 0
							}
						}
					}
				}
			}
		}
	}
	JOINT Spine_virtual
	{
		OFFSET 0.000000 0.000000 0.000000
		CHANNELS 3 Xrotation Yrotation Zrotation
		JOINT Spine
		{
			OFFSET 0.000000 6.876099 0.125700
			CHANNELS 3 Xrotation Yrotation Zrotation
			JOINT Spine1
			{
				OFFSET 0.000000 5.730043 0.104720
				CHANNELS 3 Xrotation Yrotation Zrotation
				JOINT Spine1_split
				{
					OFFSET 0.000000 5.730043 0.104720
					CHANNELS 3 Xrotation Yrotation Zrotation
					JOINT Spine2
					{
						OFFSET 0.000000 5.730043 0.104720
						CHANNELS 3 Xrotation Yrotation Zrotation
						JOINT Neck_virtual
						{
							OFFSET 0.000000 0.000000 0.000000
							CHANNELS 3 Xrotation Yrotation Zrotation
							JOINT Neck
							{
								OFFSET 0.000000 10.314075 0.188496
								CHANNELS 3 Xrotation Yrotation Zrotation
								JOINT Head
								{
									OFFSET 0.000000 7.643700 -2.377400
									CHANNELS 3 Xrotation Yrotation Zrotation
									JOINT HeadTop_End
									{
										OFFSET 0.000000 43.788605 -13.619600
										CHANNELS 3 Xrotation Yrotation Zrotation
										End Site
										{
											OFFSET 0 0 0
										}
									}
								}
							}
						}
						JOINT LeftShoulder_virtual
						{
							OFFSET 0.000000 0.000000 0.000000
							CHANNELS 3 Xrotation Yrotation Zrotation
							JOINT LeftShoulder
							{
								OFFSET 2.196100 4.412489 0.087492
								CHANNELS 3 Xrotation Yrotation Zrotation
								JOINT LeftShoulder_split
								{
									OFFSET 2.196100 4.412489 0.087492
									CHANNELS 3 Xrotation Yrotation Zrotation
									JOINT LeftArm
									{
										OFFSET 8.771219 -2.981674 -0.026999
										CHANNELS 3 Xrotation Yrotation Zrotation
										JOINT LeftForeArm
										{
											OFFSET 8.512804 0.000000 -0.000000
											CHANNELS 3 Xrotation Yrotation Zrotation
											JOINT LeftHand
											{
												OFFSET 18.484802 0.000000 -0.000000
												CHANNELS 3 Xrotation Yrotation Zrotation
												End Site
												{
													OFFSET 0 0 0
												}
											}
										}
									}
								}
							}
						}
						JOINT RightShoulder_virtual
						{
							OFFSET 0.000000 0.000000 0.000000
							CHANNELS 3 Xrotation Yrotation Zrotation
							JOINT RightShoulder
							{
								OFFSET -2.196100 4.412496 0.070690
								CHANNELS 3 Xrotation Yrotation Zrotation
								JOINT RightShoulder_split
								{
									OFFSET -2.196100 4.412496 0.070690
									CHANNELS 3 Xrotation Yrotation Zrotation
									JOINT RightArm
									{
										OFFSET -8.771282 -2.981682 -0.094208
										CHANNELS 3 Xrotation Yrotation Zrotation
										JOINT RightForeArm
										{
											OFFSET -8.494598 0.000000 0.000000
											CHANNELS 3 Xrotation Yrotation Zrotation
											JOINT RightHand
											{
												OFFSET -18.483803 0.000000 0.000001
												CHANNELS 3 Xrotation Yrotation Zrotation
												End Site
												{
													OFFSET 0 0 0
												}
											}
										}
									}
								}
							}
						}
					}
				}
			}
		}
	}
}
MOTION
Frames: 10
Frame Time: 0.03333333
6.909400 4.067369 0.447474 0.000000 0.000000 0.000000 -97.468268 68.054885 12.868466 -95.045306 20.043981 -7.889323 76.656579 31.124421 -2.969198 27.896987 2.000886 20.568879 3.240695 1.402680 -2.190118 0.000000 0.000000 0.000000 -112.377116 72.227543 27.110496 -13.471634 -1.319681 14.378612 78.155724 -9.768029 -2.687793 5.732147 -5.288699 6.161197 -4.685449 0.568298 3.057897 0.000000 0.000000 0.000000 -93.556332 70.216872 5.919098 14.363372 -6.896122 -5.749305 11.798562 -4.317962 -5.004848 0.872435 -0.516043 0.538660 0.000000 0.000000 0.000000 9.750271 -5.570998 -3.540746 -3.232520 6.511359 -17.182733 -28.022279 14.583690 -14.667225 0.000000 0.000000 0.000000 10.205062 -4.874724 -4.195244 3.084885 -6.880236 30.872264 -3.549341 -0.021107 -0.998254 -89.020519 25.871297 -57.140324 2.509065 -29.983427 0.866012 0.000000 0.000000 0.000000 11.318244 -4.952229 -3.839199 5.458738 11.962429 -17.423560 14.922346 4.046580 -0.250007 -47.612030 33.648872 104.610453 176.380852 72.391037 -175.744032 0.000000 0.000000 0.000000 
6.896380 4.047956 0.403044 0.000000 0.000000 0.000000 -96.990892 68.040193 12.539020 -95.303583 20.250862 -7.828904 76.438764 31.052806 -3.092470 27.758032 1.641406 20.656816 3.196676 1.387301 -2.000302 0.000000 0.000000 0.000000 -111.183554 72.077135 25.755393 -13.730447 -1.405592 14.432441 78.288776 -9.768107 -2.662364 5.829604 -5.204926 6.005895 -4.664828 0.623531 3.050726 0.000000 0.000000 0.000000 -92.910373 70.232520 5.550924 14.266401 -6.914882 -5.715047 11.803519 -4.399683 -4.943084 1.009729 -0.201481 0.413989 0.000000 0.000000 0.000000 9.622937 -5.673225 -3.505478 -3.143167 6.426767 -17.188595 -27.889035 14.277447 -14.704202 0.000000 0.000000 0.000000 10.237768 -4.963369 -4.089405 2.964515 -6.702602 30.602932 -3.104031 -0.266168 -0.521171 -89.018409 25.619657 -57.368740 2.417213 -30.227853 0.709381 0.000000 0.000000 0.000000 11.291549 -5.055129 -3.787159 5.440105 12.069902 -17.179848 15.260890 3.948666 -0.203985 -47.638828 33.665838 104.742604 176.531048 72.293290 -175.868164 0.000000 0.000000 0.000000 
6.881801 4.025684 0.355465 0.000000 0.000000 0.000000 -96.514138 68.005127 12.133221 -95.622710 20.599333 -7.605373 76.318041 30.910690 -3.282665 27.400603 1.246858 20.914459 3.192086 1.372216 -1.853848 0.000000 0.000000 0.000000 -109.545108 71.910943 23.954452 -13.970340 -1.482753 14.485170 78.319088 -9.581768 -2.657744 6.095649 -5.022944 6.268234 -4.993279 0.637716 3.022030 0.000000 0.000000 0.000000 -92.364771 70.342984 5.342960 14.174531 -6.915886 -5.591277 11.771697 -4.487840 -4.835736 0.910588 0.174583 0.110492 0.000000 0.000000 0.000000 9.450373 -5.791251 -3.435563 -2.756811 6.239151 -17.338169 -27.715905 13.744592 -14.712280 0.000000 0.000000 0.000000 10.223181 -5.056376 -3.929100 2.776786 -6.470204 30.321795 -2.604352 -0.449938 0.107640 -88.817581 25.232727 -57.941000 2.485309 -29.874752 0.640350 0.000000 0.000000 0.000000 11.227838 -5.155107 -3.644917 5.358016 12.107718 -16.910481 15.426833 3.928511 -0.217154 -47.516294 33.968983 104.718159 176.571564 72.644594 -175.986654 0.000000 0.000000 0.000000 
6.853179 4.013441 0.319275 0.000000 0.000000 0.000000 -96.263989 67.996377 11.905249 -95.909912 21.025575 -7.272906 76.349842 30.735704 -3.521154 26.848010 0.887423 21.384363 3.256343 1.356876 -1.782955 0.000000 0.000000 0.000000 -107.871356 71.776047 22.198241 -14.017457 -1.530543 14.538500 78.125671 -9.341709 -2.717506 6.164246 -4.895131 6.698902 -5.409904 0.615285 3.009224 0.000000 0.000000 0.000000 -92.005838 70.585094 5.366888 14.112860 -6.872548 -5.424946 11.698774 -4.547599 -4.713912 0.760364 0.536234 -0.115832 0.000000 0.000000 0.000000 9.262567 -5.886024 -3.354429 -2.162382 5.935426 -17.608368 -27.532335 13.058230 -14.711012 0.000000 0.000000 0.000000 10.144538 -5.126869 -3.753400 2.574977 -6.246469 30.061404 -2.299427 -0.382595 0.547972 -88.591734 24.687159 -58.589691 2.666184 -29.090783 0.641178 0.000000 0.000000 0.000000 11.120997 -5.217622 -3.468358 5.263560 12.034705 -16.700637 15.305411 4.055468 -0.212070 -47.332579 34.534563 104.578167 176.583258 73.181024 -176.160045 0.000000 0.000000 0.000000 
6.827025 4.023325 0.322298 0.000000 0.000000 0.000000 -96.114941 67.998017 11.785501 -96.131989 21.419282 -6.898293 76.486009 30.472746 -3.718548 26.228693 0.516534 21.876749 3.387326 1.347468 -1.790049 0.000000 0.000000 0.000000 -106.435760 71.663028 20.781897 -13.847041 -1.531210 14.542668 77.817438 -9.139938 -2.810182 5.930677 -4.927799 7.115480 -5.561193 0.571544 3.058091 0.000000 0.000000 0.000000 -91.926778 70.905806 5.668842 14.079252 -6.775381 -5.262070 11.579396 -4.562904 -4.597991 0.737708 0.713933 -0.234581 0.000000 0.000000 0.000000 9.070393 -5.916720 -3.277735 -1.473907 5.553090 -17.957798 -27.408408 12.339396 -14.705244 0.000000 0.000000 0.000000 9.991696 -5.160073 -3.598825 2.418502 -6.118136 29.824824 -2.080172 0.051347 0.829853 -88.452097 23.919497 -59.074142 2.873945 -28.195545 0.656233 0.000000 0.000000 0.000000 10.951128 -5.220998 -3.304487 5.192636 11.899497 -16.537555 14.902429 4.243643 -0.191350 -47.019217 35.278532 104.336611 176.594240 73.651234 -176.361877 0.000000 0.000000 0.000000 
6.812533 4.051094 0.303570 0.000000 0.000000 0.000000 -95.962860 67.974343 11.695089 -96.277438 21.735948 -6.583445 76.639702 30.148516 -3.819085 25.507031 0.094584 22.371878 3.540342 1.338731 -1.809230 0.000000 0.000000 0.000000 -105.725154 71.619963 20.162553 -13.541820 -1.516356 14.442732 77.603988 -8.981680 -2.841669 5.693568 -5.117004 7.630059 -5.534555 0.517598 3.162550 0.000000 0.000000 0.000000 -92.096884 71.238579 6.214727 14.048802 -6.634103 -5.141348 11.416759 -4.535141 -4.510041 0.655669 0.596586 -0.254716 0.000000 0.000000 0.000000 8.916095 -5.872464 -3.210006 -0.826926 5.195274 -18.337209 -27.404403 11.680847 -14.697638 0.000000 0.000000 0.000000 9.767561 -5.138214 -3.502003 2.341689 -6.131969 29.604205 -1.945093 0.750661 0.822394 -88.457056 22.858688 -59.216094 3.098420 -27.520166 0.652914 0.000000 0.000000 0.000000 10.727583 -5.160561 -3.181693 5.178605 11.815894 -16.342510 14.373105 4.365316 -0.200368 -46.626645 36.074156 104.081100 176.650644 73.838634 -176.573955 0.000000 0.000000 0.000000 
6.804205 4.083492 0.271116 0.000000 0.000000 0.000000 -95.961637 67.919408 11.741951 -96.321985 22.009397 -6.414852 76.749128 29.710285 -3.746636 24.712278 -0.401159 22.826528 3.666694 1.331579 -1.813864 0.000000 0.000000 0.000000 -106.017192 71.671825 20.573575 -13.255801 -1.509079 14.217207 77.562105 -8.743020 -2.829070 5.716506 -5.342921 8.634428 -5.775395 0.453726 3.249895 0.000000 0.000000 0.000000 -92.583556 71.532885 7.007075 14.040791 -6.478571 -5.080322 11.242347 -4.471804 -4.461831 0.605055 0.142433 -0.071571 0.000000 0.000000 0.000000 8.802808 -5.769462 -3.151027 -0.357727 4.929335 -18.712779 -27.501922 11.200617 -14.598413 0.000000 0.000000 0.000000 9.500774 -5.075422 -3.473751 2.334810 -6.287174 29.365616 -1.999088 1.544105 0.532565 -88.353770 21.483740 -59.140279 3.231235 -27.325403 0.586822 0.000000 0.000000 0.000000 10.462467 -5.054593 -3.100415 5.257174 11.939094 -16.026440 13.750013 4.337838 -0.233486 -46.221164 36.846589 103.811499 176.930190 73.677087 -176.910997 0.000000 0.000000 0.000000 
6.822605 4.111328 0.246492 0.000000 0.000000 0.000000 -96.103869 67.891322 11.980401 -96.363437 22.244963 -6.390640 76.876279 29.162203 -3.521758 24.019692 -0.900191 23.173160 3.743567 1.329041 -1.850414 0.000000 0.000000 0.000000 -106.955981 71.737764 21.548996 -13.029431 -1.492562 13.901660 77.702725 -8.337631 -2.812409 5.840883 -5.546687 10.184812 -6.312415 0.400780 3.267404 0.000000 0.000000 0.000000 -93.307365 71.717738 7.861859 14.052547 -6.347972 -5.045932 11.082140 -4.404853 -4.453709 0.603121 -0.432901 0.046760 0.000000 0.000000 0.000000 8.721716 -5.648330 -3.089501 -0.162670 4.834867 -19.044231 -27.645534 10.895599 -14.325760 0.000000 0.000000 0.000000 9.226404 -4.995264 -3.512971 2.364742 -6.538455 29.029086 -2.100998 2.248017 0.214579 -88.107801 19.893262 -59.055926 3.332759 -27.541230 0.464429 0.000000 0.000000 0.000000 10.201758 -4.930654 -3.039443 5.418990 12.410229 -15.469392 13.085578 4.066339 -0.377361 -45.813330 37.412662 103.480945 177.446470 73.327313 -177.359768 0.000000 0.000000 0.000000 
6.857707 4.124050 0.240646 0.000000 0.000000 0.000000 -96.434881 67.927932 12.446128 -96.410026 22.448537 -6.520182 77.157150 28.693082 -3.254939 23.523752 -1.217954 23.623041 3.700418 1.341408 -1.964229 0.000000 0.000000 0.000000 -108.088543 71.796059 22.643242 -12.792775 -1.508772 13.570109 77.908607 -7.897603 -2.746595 5.714062 -5.838112 11.940182 -6.661410 0.397751 3.226535 0.000000 0.000000 0.000000 -94.204749 71.778075 8.633868 14.092505 -6.252128 -5.005009 10.957532 -4.357635 -4.476541 0.584336 -0.865381 0.121713 0.000000 0.000000 0.000000 8.678616 -5.550314 -3.032105 -0.279019 4.941140 -19.367466 -27.691675 10.677943 -13.814380 0.000000 0.000000 0.000000 9.006100 -4.924165 -3.594863 2.395611 -6.815641 28.605181 -2.152856 2.737694 0.143448 -87.706432 18.327942 -59.025901 3.465852 -28.050516 0.392263 0.000000 0.000000 0.000000 9.986786 -4.823924 -2.988120 5.623321 13.164886 -14.780367 12.396687 3.714356 -0.704719 -45.441874 37.690948 102.974855 178.179705 73.031524 -177.934610 0.000000 0.000000 0.000000 
6.903987 4.119810 0.251295 0.000000 0.000000 0.000000 -96.861781 68.020665 13.002698 -96.394726 22.611806 -6.840122 77.619014 28.484167 -2.997174 23.251267 -1.254839 24.387812 3.471433 1.377922 -2.174520 0.000000 0.000000 0.000000 -109.205135 71.791613 23.651948 -12.474733 -1.528362 13.273434 78.074581 -7.490736 -2.606289 5.068954 -6.302682 13.623971 -6.412618 0.447864 3.186708 0.000000 0.000000 0.000000 -95.270730 71.749416 9.364142 14.191237 -6.193087 -4.927501 10.881184 -4.336536 -4.513522 0.689858 -1.036969 0.145367 0.000000 0.000000 0.000000 8.642216 -5.495201 -2.995219 -0.638806 5.214528 -19.719023 -27.429579 10.562932 -13.016710 0.000000 0.000000 0.000000 8.882658 -4.889698 -3.685608 2.413525 -7.055188 28.124308 -2.205936 3.110781 0.404412 -87.358113 17.045919 -59.140887 3.568257 -28.383389 0.400483 0.000000 0.000000 0.000000 9.840003 -4.763693 -2.948727 5.854338 14.072824 -14.100470 11.655739 3.438311 -1.233247 -44.987994 37.654529 102.274344 179.084582 72.993071 -178.633967 0.000000 0.000000 0.000000 
